<svg width="24" height="27" viewBox="0 0 24 27" fill="none" xmlns="http://www.w3.org/2000/svg">
<path d="M22 2.9707H19V1.9707C19 1.70549 18.8946 1.45113 18.7071 1.2636C18.5196 1.07606 18.2652 0.970703 18 0.970703C17.7348 0.970703 17.4804 1.07606 17.2929 1.2636C17.1054 1.45113 17 1.70549 17 1.9707V2.9707H7V1.9707C7 1.70549 6.89464 1.45113 6.70711 1.2636C6.51957 1.07606 6.26522 0.970703 6 0.970703C5.73478 0.970703 5.48043 1.07606 5.29289 1.2636C5.10536 1.45113 5 1.70549 5 1.9707V2.9707H2C1.46957 2.9707 0.960859 3.18142 0.585786 3.55649C0.210714 3.93156 0 4.44027 0 4.9707V24.9707C0 25.5011 0.210714 26.0098 0.585786 26.3849C0.960859 26.76 1.46957 26.9707 2 26.9707H22C22.5304 26.9707 23.0391 26.76 23.4142 26.3849C23.7893 26.0098 24 25.5011 24 24.9707V4.9707C24 4.44027 23.7893 3.93156 23.4142 3.55649C23.0391 3.18142 22.5304 2.9707 22 2.9707ZM5 4.9707V5.9707C5 6.23592 5.10536 6.49027 5.29289 6.67781C5.48043 6.86535 5.73478 6.9707 6 6.9707C6.26522 6.9707 6.51957 6.86535 6.70711 6.67781C6.89464 6.49027 7 6.23592 7 5.9707V4.9707H17V5.9707C17 6.23592 17.1054 6.49027 17.2929 6.67781C17.4804 6.86535 17.7348 6.9707 18 6.9707C18.2652 6.9707 18.5196 6.86535 18.7071 6.67781C18.8946 6.49027 19 6.23592 19 5.9707V4.9707H22V8.9707H2V4.9707H5ZM22 24.9707H2V10.9707H22V24.9707Z" fill="white"/>
</svg>
