<svg width="18" height="18" viewBox="0 0 18 18" fill="none" xmlns="http://www.w3.org/2000/svg">
<path d="M17.4558 0.485422C17.6434 0.672959 17.7487 0.927312 17.7487 1.19253C17.7487 1.45774 17.6434 1.7121 17.4558 1.89964L10.3848 8.9707L17.4558 16.0418C17.6434 16.2293 17.7487 16.4837 17.7487 16.7489C17.7487 17.0141 17.6434 17.2684 17.4558 17.456C17.2683 17.6435 17.014 17.7489 16.7487 17.7489C16.4835 17.7489 16.2292 17.6435 16.0416 17.456L8.97056 10.3849L1.89949 17.456C1.71196 17.6435 1.45761 17.7489 1.19239 17.7489C0.927172 17.7489 0.672818 17.6435 0.485281 17.456C0.297745 17.2684 0.192388 17.0141 0.192388 16.7489C0.192388 16.4837 0.297745 16.2293 0.485281 16.0418L7.55635 8.9707L0.485281 1.89964C0.297745 1.7121 0.192388 1.45775 0.192388 1.19253C0.192388 0.927312 0.297745 0.672959 0.485281 0.485422C0.672818 0.297885 0.927172 0.192528 1.19239 0.192528C1.45761 0.192528 1.71196 0.297886 1.89949 0.485422L8.97056 7.55649L16.0416 0.485422C16.2292 0.297885 16.4835 0.192528 16.7487 0.192528C17.014 0.192528 17.2683 0.297885 17.4558 0.485422Z" fill="white"/>
</svg>
