<svg width="28" height="28" viewBox="0 0 28 28" fill="none" xmlns="http://www.w3.org/2000/svg">
<path d="M14 0C11.2311 0 8.52431 0.821086 6.22202 2.35943C3.91973 3.89776 2.12532 6.08427 1.06569 8.64243C0.00606598 11.2006 -0.271181 14.0155 0.269012 16.7313C0.809205 19.447 2.14258 21.9416 4.10051 23.8995C6.05845 25.8574 8.55301 27.1908 11.2687 27.731C13.9845 28.2712 16.7994 27.9939 19.3576 26.9343C21.9157 25.8747 24.1022 24.0803 25.6406 21.778C27.1789 19.4757 28 16.7689 28 14C27.9961 10.2882 26.5198 6.72949 23.8952 4.10483C21.2705 1.48017 17.7118 0.00391976 14 0ZM14 25.8461C11.6571 25.8461 9.36672 25.1514 7.41863 23.8497C5.47054 22.548 3.95219 20.6979 3.05559 18.5333C2.15898 16.3687 1.92439 13.9869 2.38147 11.6889C2.83856 9.391 3.9668 7.28022 5.62351 5.6235C7.28022 3.96679 9.39101 2.83855 11.6889 2.38147C13.9869 1.92438 16.3687 2.15897 18.5333 3.05558C20.6979 3.95219 22.548 5.47054 23.8497 7.41863C25.1514 9.36672 25.8462 11.6571 25.8462 14C25.8426 17.1407 24.5934 20.1517 22.3726 22.3726C20.1518 24.5934 17.1407 25.8426 14 25.8461ZM20.1465 13.2381C20.2467 13.3381 20.3261 13.4569 20.3803 13.5876C20.4345 13.7183 20.4624 13.8585 20.4624 14C20.4624 14.1415 20.4345 14.2817 20.3803 14.4124C20.3261 14.5431 20.2467 14.6619 20.1465 14.7619L15.8389 19.0696C15.6368 19.2717 15.3627 19.3852 15.0769 19.3852C14.7912 19.3852 14.5171 19.2717 14.315 19.0696C14.1129 18.8675 13.9994 18.5935 13.9994 18.3077C13.9994 18.0219 14.1129 17.7478 14.315 17.5458L16.7852 15.0769H8.61539C8.32977 15.0769 8.05585 14.9635 7.85389 14.7615C7.65193 14.5595 7.53847 14.2856 7.53847 14C7.53847 13.7144 7.65193 13.4405 7.85389 13.2385C8.05585 13.0365 8.32977 12.9231 8.61539 12.9231H16.7852L14.315 10.4542C14.1129 10.2522 13.9994 9.97808 13.9994 9.69231C13.9994 9.40653 14.1129 9.13246 14.315 8.93038C14.5171 8.72831 14.7912 8.61478 15.0769 8.61478C15.3627 8.61478 15.6368 8.72831 15.8389 8.93038L20.1465 13.2381Z" fill="white"/>
</svg>
